#!OML:ASF F:\VICON\USERDATA\INSTALL\rory3\rory3.ASF
:FULLY-SPECIFIED
:DEGREES
377
root 0.250361 17.6433 39.5034 0.0134171 -7.41538 -7.03801
lowerback 8.38394 2.41889 6.97448
upperback 0.639237 3.94618 1.97138
thorax -3.7054 1.85595 -2.29564
lowerneck -17.5955 -2.37041 -1.57944
upperneck 17.5688 -2.81986 -0.0676755
head 8.38776 -1.44575 -0.109012
rclavicle -5.59082e-016 -7.7526e-015
rhumerus -21.4759 -7.39798 -82.436
rradius 33.1968
rwrist -2.46652
rhand -19.9438 24.0121
rfingers 7.12502
rthumb 6.39407 -5.87138
lclavicle -5.59082e-016 -7.7526e-015
lhumerus -36.229 1.06464 84.944
lradius 23.9988
lwrist 2.76915
lhand -29.0207 17.4378
lfingers 7.12502
lthumb -2.37171 47.4044
rfemur 8.28308 8.47839 33.9709
rtibia 24.447
rfoot -21.5786 -7.7824
rtoes -0.109634
lfemur -26.9568 -7.45103 -5.95413
ltibia 13.2881
lfoot -3.09174 8.5072
ltoes -3.19179
378
root 0.265624 17.6165 39.7 0.091224 -7.49521 -7.08283
lowerback 8.47556 2.52073 7.13394
upperback 0.518997 4.10993 1.9178
thorax -3.85339 1.926 -2.46467
lowerneck -17.8631 -2.51887 -1.59555
upperneck 18.0091 -3.02087 -0.0484158
head 8.58648 -1.53878 -0.131895
rclavicle 1.35143e-014 0
rhumerus -21.5889 -7.58823 -82.346
rradius 33.51
rwrist -2.4595
rhand -19.8616 24.0094
rfingers 7.12502
rthumb 6.4734 -5.87164
lclavicle 1.35143e-014 0
lhumerus -36.4587 1.24623 84.8359
lradius 23.9444
lwrist 3.21151
lhand -29.4106 16.6449
lfingers 7.12502
lthumb -2.74824 46.6069
rfemur 8.89467 8.60254 33.9486
rtibia 24.4215
rfoot -21.4606 -7.49455
rtoes -0.900399
lfemur -26.5165 -7.14855 -6.06375
ltibia 11.1895
lfoot -4.12478 8.28432
ltoes -3.80877
379
root 0.287223 17.5916 39.9058 0.0291318 -7.60445 -6.91809
lowerback 8.58486 2.56705 7.07927
upperback 0.457137 4.17574 1.81419
thorax -3.96937 1.95319 -2.55711
lowerneck -17.3907 -2.36151 -1.49114
upperneck 17.5856 -2.84656 -0.0139181
head 8.35675 -1.44722 -0.106251
rclavicle 3.47563e-015 -1.23743e-014
rhumerus -21.6137 -7.45426 -82.3699
rradius 33.6484
rwrist -2.70621
rhand -20.0562 24.3454
rfingers 7.12502
rthumb 6.2856 -5.54138
lclavicle 3.47563e-015 -1.23743e-014
lhumerus -36.8524 1.70947 84.5183
lradius 23.9997
lwrist 2.88081
lhand -29.201 15.5254
lfingers 7.12502
lthumb -2.54583 45.49
rfemur 9.57064 8.69025 33.6632
rtibia 24.643
rfoot -21.4949 -7.07595
rtoes -1.34814
lfemur -25.9015 -6.73109 -6.54645
ltibia 9.57547
lfoot -4.32063 8.07824
ltoes -6.89403
380
root 0.309317 17.5691 40.1145 0.0864772 -7.70804 -6.82926
lowerback 8.47979 2.64323 7.09668
upperback 0.402807 4.26888 1.73363
thorax -3.9513 1.99804 -2.65539
lowerneck -16.8685 -2.20377 -1.35896
upperneck 17.1143 -2.67151 -0.0122665
head 8.10286 -1.35691 -0.0963914
rclavicle 3.96606e-014 1.16289e-014
rhumerus -21.7403 -7.66992 -82.2893
rradius 33.8439
rwrist -2.66095
rhand -20.05 24.6637
rfingers 7.12502
rthumb 6.29158 -5.22287
lclavicle 3.96606e-014 1.16289e-014
lhumerus -37.3025 1.45295 84.6503
lradius 23.5908
lwrist 2.61907
lhand -30.8093 14.1609
lfingers 7.12502
lthumb -4.099 44.1012
rfemur 10.0618 8.65638 33.4031
rtibia 24.9982
rfoot -21.4667 -6.78614
rtoes -2.25762
lfemur -25.5989 -6.2921 -6.93815
ltibia 8.75462
lfoot -4.32183 7.62939
ltoes -10.1018
381
root 0.329823 17.5499 40.3197 0.168305 -7.64954 -6.84284
lowerback 8.35573 2.63883 7.15055
upperback 0.347576 4.25983 1.72381
thorax -3.936 1.99204 -2.68882
lowerneck -16.7018 -2.27859 -1.19959
upperneck 17.0306 -2.76921 -0.249279
head 8.04002 -1.41745 -0.210138
rclavicle -6.27725e-015 -9.01985e-015
rhumerus -21.8389 -7.84122 -82.207
rradius 34.0523
rwrist -2.48182
rhand -19.9542 24.537
rfingers 7.12502
rthumb 6.38403 -5.34681
lclavicle -6.27725e-015 -9.01985e-015
lhumerus -37.6207 1.60158 84.6518
lradius 23.2234
lwrist 2.59048
lhand -30.6223 15.1491
lfingers 7.12502
lthumb -3.91839 45.0928
rfemur 10.4097 8.69395 33.3383
rtibia 25.5239
rfoot -21.3108 -6.75123
rtoes -3.80096
lfemur -25.6761 -5.98287 -7.1706
ltibia 8.80307
lfoot -4.32114 6.68348
ltoes -8.37137
382
root 0.35114 17.5285 40.5176 0.121433 -7.37746 -7.0307
lowerback 8.45486 2.53067 7.41055
upperback 0.335656 4.15239 1.76333
thorax -3.99955 1.93144 -2.78677
lowerneck -17.2539 -2.34479 -1.14629
upperneck 17.7636 -2.84678 -0.353348
head 8.38161 -1.45996 -0.276179
rclavicle 2.21629e-014 -1.75676e-014
rhumerus -21.6854 -7.95257 -82.1896
rradius 34.039
rwrist -2.59312
rhand -19.9503 24.4636
rfingers 7.12502
rthumb 6.38776 -5.42012
lclavicle 2.21629e-014 -1.75676e-014
lhumerus -37.814 2.53267 84.1673
lradius 23.7326
lwrist 3.61323
lhand -25.334 21.665
lfingers 7.12502
lthumb 1.18903 51.6414
rfemur 10.7683 8.68327 33.5609
rtibia 26.2295
rfoot -20.891 -6.60188
rtoes -4.23426
lfemur -26.0349 -5.90097 -7.21173
ltibia 9.8048
lfoot -3.98184 5.39657
ltoes -3.63316
